<svg width="758" height="102" viewBox="0 0 758 102" fill="none" xmlns="http://www.w3.org/2000/svg">
<g clip-path="url(#clip0_2_16)">
<g opacity="0.03">
<path d="M43.54 2.00007C52.2201 2.00007 59.7566 3.44672 66.15 6.34007C72.5434 9.23342 77.4667 13.34 80.92 18.6601C84.3734 23.9801 86.1 30.28 86.1 37.5601C86.1 44.7468 84.3734 51.0234 80.92 56.3901C77.4667 61.7568 72.5434 65.8634 66.15 68.7101C59.7566 71.5567 52.2201 72.9801 43.54 72.9801H23.8V100H1.12V2.00007H43.54ZM42.28 54.5001C49.0934 54.5001 54.2733 53.0301 57.82 50.0901C61.3667 47.1501 63.14 42.9734 63.14 37.5601C63.14 32.0534 61.3667 27.8301 57.82 24.8901C54.2733 21.9501 49.0934 20.4801 42.28 20.4801H23.8V54.5001H42.28ZM166.04 100L147.14 72.7001H126.28V100H103.6V2.00007H146.02C154.7 2.00007 162.237 3.44672 168.63 6.34007C175.023 9.23342 179.947 13.34 183.4 18.6601C186.853 23.9801 188.58 30.28 188.58 37.5601C188.58 44.8401 186.83 51.1167 183.33 56.3901C179.83 61.6634 174.86 65.7001 168.42 68.5001L190.4 100H166.04ZM165.62 37.5601C165.62 32.0534 163.847 27.8301 160.3 24.8901C156.753 21.9501 151.573 20.4801 144.76 20.4801H126.28V54.6401H144.76C151.573 54.6401 156.753 53.1468 160.3 50.1601C163.847 47.1734 165.62 42.9734 165.62 37.5601ZM253.96 101.68C243.787 101.68 234.617 99.4868 226.45 95.1001C218.283 90.7134 211.89 84.6701 207.27 76.9701C202.65 69.27 200.34 60.6134 200.34 51.0001C200.34 41.3867 202.65 32.7301 207.27 25.0301C211.89 17.33 218.283 11.2868 226.45 6.90007C234.617 2.51338 243.787 0.320068 253.96 0.320068C264.133 0.320068 273.28 2.51338 281.4 6.90007C289.52 11.2868 295.913 17.33 300.58 25.0301C305.247 32.7301 307.58 41.3867 307.58 51.0001C307.58 60.6134 305.247 69.27 300.58 76.9701C295.913 84.6701 289.52 90.7134 281.4 95.1001C273.28 99.4868 264.133 101.68 253.96 101.68ZM253.96 82.3601C259.747 82.3601 264.973 81.0301 269.64 78.3701C274.307 75.7101 277.97 72.0001 280.63 67.2401C283.29 62.48 284.62 57.0668 284.62 51.0001C284.62 44.9334 283.29 39.5201 280.63 34.7601C277.97 30 274.307 26.2901 269.64 23.6301C264.973 20.9701 259.747 19.6401 253.96 19.6401C248.173 19.6401 242.947 20.9701 238.28 23.6301C233.613 26.2901 229.95 30 227.29 34.7601C224.63 39.5201 223.3 44.9334 223.3 51.0001C223.3 57.0668 224.63 62.48 227.29 67.2401C229.95 72.0001 233.613 75.7101 238.28 78.3701C242.947 81.0301 248.173 82.3601 253.96 82.3601ZM342.72 101.68C336.093 101.68 330.003 100.443 324.45 97.9701C318.897 95.4967 314.347 91.9734 310.8 87.4001L323.4 72.2801C328.72 79.4668 334.787 83.0601 341.6 83.0601C350.84 83.0601 355.46 77.6468 355.46 66.8201V20.2001H321.02V2.00007H378V65.5601C378 77.6001 375.013 86.63 369.04 92.6501C363.067 98.6701 354.293 101.68 342.72 101.68ZM476.28 81.8001V100H400.4V2.00007H474.46V20.2001H422.94V41.4801H468.44V59.1201H422.94V81.8001H476.28ZM541.24 101.68C531.253 101.68 522.223 99.5101 514.15 95.1701C506.077 90.83 499.73 84.8101 495.11 77.1101C490.49 69.41 488.18 60.7068 488.18 51.0001C488.18 41.2934 490.49 32.5901 495.11 24.8901C499.73 17.19 506.077 11.1701 514.15 6.83007C522.223 2.49005 531.3 0.320068 541.38 0.320068C549.873 0.320068 557.55 1.81339 564.41 4.80007C571.27 7.78675 577.033 12.08 581.7 17.6801L567.14 31.1201C560.513 23.4667 552.3 19.6401 542.5 19.6401C536.433 19.6401 531.02 20.9701 526.26 23.6301C521.5 26.2901 517.79 30 515.13 34.7601C512.47 39.5201 511.14 44.9334 511.14 51.0001C511.14 57.0668 512.47 62.48 515.13 67.2401C517.79 72.0001 521.5 75.7101 526.26 78.3701C531.02 81.0301 536.433 82.3601 542.5 82.3601C552.3 82.3601 560.513 78.4868 567.14 70.7401L581.7 84.1801C577.033 89.8734 571.247 94.2134 564.34 97.2001C557.433 100.187 549.733 101.68 541.24 101.68ZM617.26 20.4801H585.9V2.00007H671.3V20.4801H639.94V100H617.26V20.4801ZM715.68 101.68C707.933 101.68 700.443 100.63 693.21 98.5301C685.977 96.4301 680.167 93.7001 675.78 90.3401L683.48 73.2601C687.68 76.3401 692.673 78.8134 698.46 80.6801C704.247 82.5467 710.033 83.4801 715.82 83.4801C722.26 83.4801 727.02 82.5234 730.1 80.6101C733.18 78.6967 734.72 76.1534 734.72 72.9801C734.72 70.6467 733.81 68.7101 731.99 67.1701C730.17 65.6301 727.837 64.3934 724.99 63.4601C722.143 62.5267 718.293 61.5001 713.44 60.3801C705.973 58.6067 699.86 56.8334 695.1 55.0601C690.34 53.2867 686.257 50.4401 682.85 46.5201C679.443 42.6 677.74 37.3734 677.74 30.8401C677.74 25.1467 679.28 19.9901 682.36 15.3701C685.44 10.75 690.083 7.08675 696.29 4.38007C702.497 1.67339 710.08 0.320068 719.04 0.320068C725.293 0.320068 731.407 1.06673 737.38 2.56007C743.353 4.05341 748.58 6.20005 753.06 9.00007L746.06 26.2201C737.007 21.0867 727.953 18.5201 718.9 18.5201C712.553 18.5201 707.863 19.5467 704.83 21.6001C701.797 23.6534 700.28 26.3601 700.28 29.7201C700.28 33.0801 702.03 35.5767 705.53 37.2101C709.03 38.8434 714.373 40.4534 721.56 42.0401C729.027 43.8134 735.14 45.5867 739.9 47.3601C744.66 49.1334 748.743 51.9334 752.15 55.7601C755.557 59.5868 757.26 64.7667 757.26 71.3001C757.26 76.9001 755.697 82.01 752.57 86.6301C749.443 91.2501 744.753 94.9134 738.5 97.6201C732.247 100.327 724.64 101.68 715.68 101.68Z" fill="#262834"/>
</g>
</g>
<defs>
<clipPath id="clip0_2_16">
<rect width="757" height="102" fill="white" transform="translate(0.5)"/>
</clipPath>
</defs>
</svg>
